<?xml version="1.0" encoding="utf-8"?><!--Generator: Adobe Illustrator 24.0.1, SVG Export Plug-In . SVG Version: 6.00 Build 0)--><svg version="1.1" id="Layer_1" xmlns="http://www.w3.org/2000/svg" xmlns:xlink="http://www.w3.org/1999/xlink" x="0px" y="0px" viewBox="0 0 100 100" enable-background="new 0 0 100 100" xml:space="preserve"><path fill="#F6B26A" stroke="#323334" stroke-width="3.5" stroke-linecap="round" stroke-linejoin="round" stroke-miterlimit="10" d=" M90.74,30.89c-0.88-1.86-3.15-2.59-4.93-1.56l-0.01,0c1.79-1.03,2.29-3.37,1.11-5.06C79.47,13.61,67.53,6.32,53.84,5.16 C51.78,4.99,50,6.58,50,8.65c0-2.07-1.78-3.66-3.84-3.49c-13.69,1.16-25.63,8.45-33.07,19.11c-1.18,1.69-0.67,4.03,1.11,5.06 l7.66,4.42C27.48,24.04,37.97,17.5,50,17.5c12.03,0,22.52,6.54,28.14,16.25C80.91,38.53,82.5,44.08,82.5,50s-1.59,11.47-4.36,16.25 C72.52,75.96,62.03,82.5,50,82.5v8.85c0,2.07,1.78,3.66,3.84,3.49c13.69-1.16,25.63-8.45,33.07-19.11c1.18-1.69,0.67-4.03-1.11-5.06 l0.01,0c1.78,1.03,4.06,0.3,4.93-1.56C93.47,63.31,95,56.84,95,50C95,43.16,93.47,36.69,90.74,30.89z"/><path fill="#F5E169" stroke="#323334" stroke-width="3.5" stroke-linecap="round" stroke-linejoin="round" stroke-miterlimit="10" d=" M35.02,41.19L50,50v32.5c12.03,0,22.52-6.54,28.14-16.25C80.91,61.47,82.5,55.92,82.5,50s-1.59-11.47-4.36-16.25 C72.52,24.04,62.03,17.5,50,17.5c-12.03,0-22.52,6.54-28.14,16.25l3.6,2.08l-0.06,0.1V52c0,1.71,1.43,3.09,3.16,3 c1.62-0.08,2.84-1.54,2.84-3.17v0c0-2.88,2.79-4.93,5.53-4.07l0,0c2.49,0.78,5.08,0.29,7.07-1.09"/><line fill="none" stroke="#323334" stroke-width="3.5" stroke-linecap="round" stroke-linejoin="round" stroke-miterlimit="10" x1="52.61" y1="42.8" x2="53.11" y2="41.94"/><path fill="#F2F2F3" stroke="#323334" stroke-width="3.5" stroke-linecap="round" stroke-linejoin="round" stroke-miterlimit="10" d=" M42.28,23h-3.06c-3.71,0-6.72,3.01-6.72,6.72v0c0,1.24,1,2.24,2.24,2.24h0c1.24,0,2.24,1,2.24,2.24v0.98c0,1.35,1.09,2.44,2.44,2.44 h2.66c1.35,0,2.44-1.09,2.44-2.44V34.2c0-1.24,1-2.24,2.24-2.24h0c1.24,0,2.24-1,2.24-2.24v0C49,26.01,45.99,23,42.28,23z"/><path fill="#F2F2F3" stroke="#323334" stroke-width="3.5" stroke-linecap="round" stroke-linejoin="round" stroke-miterlimit="10" d=" M73.24,59.37l1.57-2.63c1.9-3.18,0.86-7.31-2.32-9.21l0,0c-1.06-0.63-2.44-0.29-3.07,0.77l0,0c-0.63,1.06-2.01,1.41-3.07,0.77 l-0.84-0.5c-1.16-0.69-2.66-0.31-3.35,0.84L60.8,51.7c-0.69,1.16-0.31,2.66,0.84,3.35l0.84,0.5c1.06,0.63,1.41,2.01,0.77,3.07l0,0 c-0.63,1.06-0.29,2.44,0.77,3.07l0,0C67.21,63.59,71.33,62.56,73.24,59.37z"/><ellipse transform="matrix(0.9342 -0.3567 0.3567 0.9342 -8.0195 24.5142)" fill="#323334" cx="62.45" cy="34" rx="5.45" ry="4"/><ellipse transform="matrix(0.7979 -0.6028 0.6028 0.7979 -30.18 49.9879)" fill="#323334" cx="59.45" cy="70" rx="3.62" ry="4.93"/><metadata xmlns:d="https://loading.io/stock/">
<d:name>pizza</d:name>
<d:tags>pizza,delicious,food,yummy,bread,cheese,pepper,vegetable,mushroom</d:tags>
<d:license>by</d:license>
<d:slug>2oyrlr</d:slug>
</metadata></svg>