<?xml version="1.0" encoding="utf-8"?><!--Generator: Adobe Illustrator 24.0.1, SVG Export Plug-In . SVG Version: 6.00 Build 0)--><svg version="1.1" id="Layer_1" xmlns="http://www.w3.org/2000/svg" xmlns:xlink="http://www.w3.org/1999/xlink" x="0px" y="0px" viewBox="0 0 100 100" enable-background="new 0 0 100 100" xml:space="preserve"><path fill="#F6B26A" stroke="#323334" stroke-width="3.5" stroke-linecap="round" stroke-linejoin="round" stroke-miterlimit="10" d=" M69.28,58.2l13.3-7.68c3.1-1.79,3.98-5.85,1.93-8.79C71.58,23.2,50.84,10.53,27.05,8.52c-3.58-0.3-6.67,2.47-6.67,6.06v15.38 C41.28,29.96,59.51,41.32,69.28,58.2z"/><path fill="#F5E169" stroke="#323334" stroke-width="3.5" stroke-linecap="round" stroke-linejoin="round" stroke-miterlimit="10" d=" M33.24,79.02c1.25,0.87,2.64,1.53,4.11,1.96c1.11,0.32,1.84,1.38,1.84,2.53v2.37c0,1.73,1.29,3.27,3.02,3.36 c1.84,0.1,3.36-1.37,3.36-3.18v-2.49c0-1.75,1.54-3.18,3.28-2.91c3.5,0.54,6.36,3.58,6.29,7.46c-0.03,1.99,0.9,3.92,2.7,4.78 c3.9,1.86,7.73-0.93,7.73-4.62V60.36l-0.01-0.01l3.73-2.15c-9.76-16.87-28-28.24-48.9-28.24v56.47l35.68-20.6"/><line fill="none" stroke="#323334" stroke-width="3.5" stroke-linecap="round" stroke-linejoin="round" stroke-miterlimit="10" x1="26" y1="39" x2="22.11" y2="38.94"/><line fill="none" stroke="#323334" stroke-width="3.5" stroke-linecap="round" stroke-linejoin="round" stroke-miterlimit="10" x1="23.61" y1="77.8" x2="24.11" y2="76.94"/><path fill="#F2F2F3" stroke="#323334" stroke-width="3.5" stroke-linecap="round" stroke-linejoin="round" stroke-miterlimit="10" d=" M41.28,35h-3.06c-3.71,0-6.72,3.01-6.72,6.72v0c0,1.24,1,2.24,2.24,2.24h0c1.24,0,2.24,1,2.24,2.24v0.98c0,1.35,1.09,2.44,2.44,2.44 h2.66c1.35,0,2.44-1.09,2.44-2.44V46.2c0-1.24,1-2.24,2.24-2.24h0c1.24,0,2.24-1,2.24-2.24v0C48,38.01,44.99,35,41.28,35z"/><path fill="#F2F2F3" stroke="#323334" stroke-width="3.5" stroke-linecap="round" stroke-linejoin="round" stroke-miterlimit="10" d=" M29.52,70.78l2.15,2.18c2.61,2.64,6.86,2.67,9.5,0.06l0,0c0.88-0.87,0.89-2.29,0.02-3.17l0,0c-0.87-0.88-0.86-2.3,0.02-3.17 L41.91,66c0.96-0.95,0.97-2.49,0.02-3.45l-1.87-1.89c-0.95-0.96-2.49-0.97-3.45-0.02l-0.69,0.69c-0.88,0.87-2.3,0.86-3.17-0.02l0,0 c-0.87-0.88-2.29-0.89-3.17-0.02l0,0C26.94,63.89,26.91,68.14,29.52,70.78z"/><ellipse transform="matrix(0.7979 -0.6028 0.6028 0.7979 -23.1555 42.9386)" fill="#323334" cx="52.45" cy="56" rx="3.62" ry="4.93"/><line fill="none" stroke="#323334" stroke-width="3.5" stroke-linecap="round" stroke-linejoin="round" stroke-miterlimit="10" x1="25.61" y1="51.8" x2="25.11" y2="50.94"/><metadata xmlns:d="https://loading.io/stock/">
<d:name>pizza</d:name>
<d:tags>pizza,delicious,food,yummy,bread,cheese,pepper,vegetable,mushroom</d:tags>
<d:license>by</d:license>
<d:slug>8i2pef</d:slug>
</metadata></svg>