<?xml version="1.0" encoding="utf-8"?><!--Generator: Adobe Illustrator 24.0.1, SVG Export Plug-In . SVG Version: 6.00 Build 0)--><svg version="1.1" id="Layer_1" xmlns="http://www.w3.org/2000/svg" xmlns:xlink="http://www.w3.org/1999/xlink" x="0px" y="0px" viewBox="0 0 100 100" enable-background="new 0 0 100 100" xml:space="preserve"><g><path fill="#F6B26A" stroke="#323334" stroke-width="3.5" stroke-linecap="round" stroke-linejoin="round" stroke-miterlimit="10" d=" M90.75,30.91c-0.88-1.87-3.15-2.61-4.94-1.58l-0.01,0.01c1.79-1.03,2.29-3.37,1.11-5.06C79.47,13.61,67.53,6.32,53.84,5.16 C51.78,4.99,50,6.58,50,8.65v0.01c0-2.06-1.77-3.67-3.83-3.49c-12.96,1.12-25.24,7.81-33.09,19.08c-1.18,1.7-0.69,4.04,1.1,5.07 l2.8,1.62l-2.79-1.61c-1.79-1.03-4.06-0.3-4.94,1.57C3.75,42.68,3.41,56.66,9.25,69.09c0.88,1.87,3.15,2.61,4.94,1.58l7.66-4.42 c-6.01-10.42-5.6-22.77,0-32.5l0,0C27.87,23.33,38.78,17.51,50,17.5v0c12.03,0,22.52,6.54,28.14,16.25l0,0 c6.01,10.42,5.6,22.77,0,32.5l0,0C72.13,76.67,61.22,82.49,50,82.5v8.84c0,2.06,1.77,3.67,3.83,3.49 c12.96-1.12,25.24-7.81,33.09-19.08c1.18-1.7,0.69-4.04-1.1-5.07l-2.8-1.62l2.79,1.61c1.79,1.03,4.06,0.3,4.94-1.57 C96.25,57.32,96.59,43.34,90.75,30.91z"/><path fill="#F5E169" stroke="#323334" stroke-width="3.5" stroke-linecap="round" stroke-linejoin="round" stroke-miterlimit="10" d=" M78.15,33.75L78.15,33.75C72.52,24.04,62.03,17.5,50,17.5v0c-11.22,0.01-22.13,5.83-28.15,16.25l0,0c-5.6,9.72-6.02,22.08,0,32.5 L50,50v32.5c11.22-0.01,22.13-5.83,28.15-16.25l0,0C83.74,56.52,84.16,44.17,78.15,33.75z"/></g><line fill="none" stroke="#323334" stroke-width="3.5" stroke-linecap="round" stroke-linejoin="round" stroke-miterlimit="10" x1="30" y1="53" x2="26.11" y2="52.94"/><line fill="none" stroke="#323334" stroke-width="3.5" stroke-linecap="round" stroke-linejoin="round" stroke-miterlimit="10" x1="52.61" y1="42.8" x2="53.11" y2="41.94"/><path fill="#F2F2F3" stroke="#323334" stroke-width="3.5" stroke-linecap="round" stroke-linejoin="round" stroke-miterlimit="10" d=" M42.28,28h-3.06c-3.71,0-6.72,3.01-6.72,6.72v0c0,1.24,1,2.24,2.24,2.24h0c1.24,0,2.24,1,2.24,2.24v0.98c0,1.35,1.09,2.44,2.44,2.44 h2.66c1.35,0,2.44-1.09,2.44-2.44V39.2c0-1.24,1-2.24,2.24-2.24h0c1.24,0,2.24-1,2.24-2.24v0C49,31.01,45.99,28,42.28,28z"/><path fill="#F2F2F3" stroke="#323334" stroke-width="3.5" stroke-linecap="round" stroke-linejoin="round" stroke-miterlimit="10" d=" M73.24,59.37l1.57-2.63c1.9-3.18,0.86-7.31-2.32-9.21l0,0c-1.06-0.63-2.44-0.29-3.07,0.77l0,0c-0.63,1.06-2.01,1.41-3.07,0.77 l-0.84-0.5c-1.16-0.69-2.66-0.31-3.35,0.84L60.8,51.7c-0.69,1.16-0.31,2.66,0.84,3.35l0.84,0.5c1.06,0.63,1.41,2.01,0.77,3.07l0,0 c-0.63,1.06-0.29,2.44,0.77,3.07l0,0C67.21,63.59,71.33,62.56,73.24,59.37z"/><g><path fill="#F6B26A" stroke="#323334" stroke-width="3.5" stroke-linecap="round" stroke-linejoin="round" stroke-miterlimit="10" d=" M21.86,66.25l-7.66,4.42c-1.79,1.03-2.29,3.37-1.11,5.06c7.44,10.66,19.38,17.95,33.07,19.11c2.06,0.17,3.84-1.42,3.84-3.49V82.5 C37.97,82.5,27.48,75.96,21.86,66.25z"/><path fill="#F5E169" stroke="#323334" stroke-width="3.5" stroke-linecap="round" stroke-linejoin="round" stroke-miterlimit="10" d=" M50,82.5V50L21.86,66.25C27.48,75.96,37.97,82.5,50,82.5z"/><path fill="#F2F2F3" stroke="#323334" stroke-width="3.5" stroke-linecap="round" stroke-linejoin="round" stroke-miterlimit="10" d=" M31.52,74.78l2.15,2.18c2.61,2.64,6.86,2.67,9.5,0.06l0,0c0.88-0.87,0.89-2.29,0.02-3.17l0,0c-0.87-0.88-0.86-2.3,0.02-3.17 L43.91,70c0.96-0.95,0.97-2.49,0.02-3.45l-1.87-1.89c-0.95-0.96-2.49-0.97-3.45-0.02l-0.69,0.69c-0.88,0.87-2.3,0.86-3.17-0.02h0 c-0.87-0.88-2.29-0.89-3.17-0.02l0,0C28.94,67.89,28.91,72.14,31.52,74.78z"/></g><ellipse transform="matrix(0.9342 -0.3567 0.3567 0.9342 -8.0195 24.5142)" fill="#323334" cx="62.45" cy="34" rx="5.45" ry="4"/><ellipse transform="matrix(0.7979 -0.6028 0.6028 0.7979 -30.18 49.9879)" fill="#323334" cx="59.45" cy="70" rx="3.62" ry="4.93"/><line fill="none" stroke="#323334" stroke-width="3.5" stroke-linecap="round" stroke-linejoin="round" stroke-miterlimit="10" x1="29.61" y1="44.8" x2="29.11" y2="43.94"/><metadata xmlns:d="https://loading.io/stock/">
<d:name>pizza</d:name>
<d:tags>pizza,delicious,food,yummy,bread,cheese,pepper,mushroom</d:tags>
<d:license>by</d:license>
<d:slug>epuawj</d:slug>
</metadata></svg>