<?xml version="1.0" encoding="utf-8"?><!--Generator: Adobe Illustrator 24.0.1, SVG Export Plug-In . SVG Version: 6.00 Build 0)--><svg version="1.1" id="Layer_1" xmlns="http://www.w3.org/2000/svg" xmlns:xlink="http://www.w3.org/1999/xlink" x="0px" y="0px" viewBox="0 0 100 100" enable-background="new 0 0 100 100" xml:space="preserve"><path fill="#F5E169" stroke="#323334" stroke-width="3.5" stroke-linecap="round" stroke-linejoin="round" stroke-miterlimit="10" d=" M19.4,67.67c1.99,1.38,4.57,1.87,7.07,1.09l0,0c2.75-0.85,5.53,1.2,5.53,4.07v0c0,1.62,1.22,3.08,2.84,3.17 c1.73,0.09,3.16-1.29,3.16-3c0,0,0-7.27,0-12.03c0-2.5,1.34-4.82,3.5-6.07L50,50v32.5c11.22-0.01,22.13-5.83,28.15-16.25l0,0 c5.6-9.72,6.02-22.08,0-32.5l0,0C72.52,24.04,62.03,17.5,50,17.5v0c-11.22,0.01-22.13,5.83-28.15,16.25l0,0 c-5.6,9.72-6.02,22.08,0,32.5L31,61"/><path fill="#F6B26A" stroke="#323334" stroke-width="3.5" stroke-linecap="round" stroke-linejoin="round" stroke-miterlimit="10" d=" M90.75,30.91c-0.88-1.87-3.15-2.61-4.94-1.58l-0.01,0.01c1.79-1.03,2.29-3.37,1.11-5.06C79.47,13.61,67.53,6.32,53.84,5.16 C51.78,4.99,50,6.58,50,8.65v0.01c0-2.06-1.77-3.67-3.83-3.49c-12.96,1.12-25.24,7.81-33.09,19.08c-1.18,1.7-0.69,4.04,1.1,5.07 l2.8,1.62l-2.79-1.61c-1.79-1.03-4.06-0.3-4.94,1.57C3.75,42.68,3.41,56.66,9.25,69.09c0.88,1.87,3.15,2.61,4.94,1.58l7.66-4.42 c-6.01-10.42-5.6-22.77,0-32.5l0,0C27.87,23.33,38.78,17.51,50,17.5v0c12.03,0,22.52,6.54,28.14,16.25l0,0 c6.01,10.42,5.6,22.77,0,32.5l0,0C72.13,76.67,61.22,82.49,50,82.5v8.84c0,2.06,1.77,3.67,3.83,3.49 c12.96-1.12,25.24-7.81,33.09-19.08c1.18-1.7,0.69-4.04-1.1-5.07l-2.8-1.62l2.79,1.61c1.79,1.03,4.06,0.3,4.94-1.57 C96.25,57.32,96.59,43.34,90.75,30.91z"/><line fill="none" stroke="#323334" stroke-width="3.5" stroke-linecap="round" stroke-linejoin="round" stroke-miterlimit="10" x1="30" y1="53" x2="26.11" y2="52.94"/><line fill="none" stroke="#323334" stroke-width="3.5" stroke-linecap="round" stroke-linejoin="round" stroke-miterlimit="10" x1="52.61" y1="42.8" x2="53.11" y2="41.94"/><path fill="#F2F2F3" stroke="#323334" stroke-width="3.5" stroke-linecap="round" stroke-linejoin="round" stroke-miterlimit="10" d=" M42.28,28h-3.06c-3.71,0-6.72,3.01-6.72,6.72v0c0,1.24,1,2.24,2.24,2.24h0c1.24,0,2.24,1,2.24,2.24v0.98c0,1.35,1.09,2.44,2.44,2.44 h2.66c1.35,0,2.44-1.09,2.44-2.44V39.2c0-1.24,1-2.24,2.24-2.24h0c1.24,0,2.24-1,2.24-2.24v0C49,31.01,45.99,28,42.28,28z"/><path fill="#F2F2F3" stroke="#323334" stroke-width="3.5" stroke-linecap="round" stroke-linejoin="round" stroke-miterlimit="10" d=" M73.24,59.37l1.57-2.63c1.9-3.18,0.86-7.31-2.32-9.21l0,0c-1.06-0.63-2.44-0.29-3.07,0.77l0,0c-0.63,1.06-2.01,1.41-3.07,0.77 l-0.84-0.5c-1.16-0.69-2.66-0.31-3.35,0.84L60.8,51.7c-0.69,1.16-0.31,2.66,0.84,3.35l0.84,0.5c1.06,0.63,1.41,2.01,0.77,3.07l0,0 c-0.63,1.06-0.29,2.44,0.77,3.07l0,0C67.21,63.59,71.33,62.56,73.24,59.37z"/><ellipse transform="matrix(0.9342 -0.3567 0.3567 0.9342 -8.0195 24.5142)" fill="#323334" cx="62.45" cy="34" rx="5.45" ry="4"/><ellipse transform="matrix(0.7979 -0.6028 0.6028 0.7979 -30.18 49.9879)" fill="#323334" cx="59.45" cy="70" rx="3.62" ry="4.93"/><line fill="none" stroke="#323334" stroke-width="3.5" stroke-linecap="round" stroke-linejoin="round" stroke-miterlimit="10" x1="29.61" y1="44.8" x2="29.11" y2="43.94"/><metadata xmlns:d="https://loading.io/stock/">
<d:name>pizza</d:name>
<d:tags>pizza,delicious,food,yummy,bread,cheese,pepper,vegetable,mushroom</d:tags>
<d:license>by</d:license>
<d:slug>g4j1zq</d:slug>
</metadata></svg>