<?xml version="1.0" standalone="no"?>
<svg xmlns:xlink="http://www.w3.org/1999/xlink" id="wave" style="transform:rotate(0deg); transition: 0.3s" viewBox="0 0 1440 310" version="1.1" xmlns="http://www.w3.org/2000/svg"><defs><linearGradient id="sw-gradient-0" x1="0" x2="0" y1="1" y2="0"><stop stop-color="rgba(243, 106, 62, 1)" offset="0%"/><stop stop-color="rgba(255, 179, 11, 1)" offset="100%"/></linearGradient></defs><path style="transform:translate(0, 0px); opacity:1" fill="url(#sw-gradient-0)" d="M0,31L48,62C96,93,192,155,288,196.3C384,238,480,258,576,227.3C672,196,768,114,864,77.5C960,41,1056,52,1152,82.7C1248,114,1344,165,1440,155C1536,145,1632,72,1728,36.2C1824,0,1920,0,2016,0C2112,0,2208,0,2304,46.5C2400,93,2496,186,2592,206.7C2688,227,2784,176,2880,134.3C2976,93,3072,62,3168,51.7C3264,41,3360,52,3456,87.8C3552,124,3648,186,3744,196.3C3840,207,3936,165,4032,124C4128,83,4224,41,4320,67.2C4416,93,4512,186,4608,211.8C4704,238,4800,196,4896,191.2C4992,186,5088,217,5184,232.5C5280,248,5376,248,5472,206.7C5568,165,5664,83,5760,87.8C5856,93,5952,186,6048,186C6144,186,6240,93,6336,77.5C6432,62,6528,124,6624,134.3C6720,145,6816,103,6864,82.7L6912,62L6912,310L6864,310C6816,310,6720,310,6624,310C6528,310,6432,310,6336,310C6240,310,6144,310,6048,310C5952,310,5856,310,5760,310C5664,310,5568,310,5472,310C5376,310,5280,310,5184,310C5088,310,4992,310,4896,310C4800,310,4704,310,4608,310C4512,310,4416,310,4320,310C4224,310,4128,310,4032,310C3936,310,3840,310,3744,310C3648,310,3552,310,3456,310C3360,310,3264,310,3168,310C3072,310,2976,310,2880,310C2784,310,2688,310,2592,310C2496,310,2400,310,2304,310C2208,310,2112,310,2016,310C1920,310,1824,310,1728,310C1632,310,1536,310,1440,310C1344,310,1248,310,1152,310C1056,310,960,310,864,310C768,310,672,310,576,310C480,310,384,310,288,310C192,310,96,310,48,310L0,310Z"/></svg>